<svg width="23" height="40" viewBox="0 0 23 40" fill="none" xmlns="http://www.w3.org/2000/svg">
<path d="M20.0246 10.7534C20.555 10.7534 21.0637 10.9641 21.4388 11.3392C21.8139 11.7143 22.0246 12.223 22.0246 12.7534L22.0246 38.0004C22.0245 38.3959 21.9071 38.7825 21.6874 39.1113C21.4676 39.4402 21.1553 39.6964 20.7899 39.8478C20.4245 39.9991 20.0224 40.0387 19.6345 39.9616C19.2466 39.8845 18.8903 39.694 18.6106 39.4144L0.610573 21.4144C0.246257 21.0372 0.044668 20.532 0.0492249 20.0076C0.0537817 19.4832 0.264121 18.9816 0.634937 18.6108C1.00575 18.24 1.50738 18.0296 2.03177 18.0251C2.55617 18.0205 3.06137 18.2221 3.43858 18.5864L18.0246 33.1724L18.0246 12.7524C18.0246 12.222 18.2353 11.7133 18.6104 11.3382C18.9854 10.9631 19.4941 10.7534 20.0246 10.7534Z" fill="white"/>
<path d="M20.0246 0.000427246C20.4201 0.000511695 20.8067 0.117855 21.1355 0.337624C21.4643 0.557392 21.7206 0.869719 21.8719 1.23512C22.0233 1.60052 22.0629 2.00259 21.9857 2.39049C21.9086 2.7784 21.7182 3.13473 21.4386 3.41443L3.43858 21.4144C3.25408 21.6054 3.03339 21.7578 2.78938 21.8626C2.54537 21.9674 2.28293 22.0226 2.01738 22.0249C1.75182 22.0272 1.48846 21.9766 1.24267 21.8761C0.996875 21.7755 0.77357 21.627 0.585785 21.4392C0.398 21.2514 0.249491 21.0281 0.14893 20.7823C0.0483678 20.5365 -0.00223515 20.2732 7.24792e-05 20.0076C0.00238011 19.7421 0.0575546 19.4796 0.162373 19.2356C0.267191 18.9916 0.419552 18.7709 0.610573 18.5864L18.6106 0.586426C18.7961 0.40043 19.0165 0.252916 19.2591 0.152351C19.5018 0.0517871 19.7619 0.000155901 20.0246 0.000427246Z" fill="white"/>
</svg>
