<svg width="40" height="40" viewBox="0 0 40 40" fill="none" xmlns="http://www.w3.org/2000/svg">
<path d="M16.0613 20.9089C16.6614 21.5062 16.6614 22.4863 16.0613 23.0835C15.4904 23.6807 14.5535 23.6807 13.9826 23.0835C11.1282 20.0973 11.1282 15.2428 13.9826 12.2566L19.1646 6.83549C22.019 3.84928 26.6594 3.84928 29.5138 6.83549C32.3683 9.82169 32.3683 14.6762 29.5138 17.6624L27.3327 19.9442C27.3473 18.6884 27.157 17.4327 26.7472 16.2382L27.4352 15.5031C29.1625 13.7114 29.1625 10.8018 27.4352 9.01006C25.7225 7.20302 22.9412 7.20302 21.2286 9.01006L16.0613 14.4159C14.3339 16.2076 14.3339 19.1172 16.0613 20.9089ZM20.1892 14.4159C20.7601 13.8186 21.697 13.8186 22.2679 14.4159C25.1223 17.4021 25.1223 22.2566 22.2679 25.2428L17.0859 30.6639C14.2315 33.6501 9.59114 33.6501 6.73668 30.6639C3.88222 27.6777 3.88222 22.8232 6.73668 19.837L8.91778 17.5552C8.90314 18.8109 9.09344 20.0667 9.50331 21.2765L8.81531 21.9962C7.088 23.7879 7.088 26.6976 8.81531 28.4893C10.528 30.2963 13.3093 30.2963 15.0219 28.4893L20.1892 23.0835C21.9166 21.2918 21.9166 18.3821 20.1892 16.5904C19.5891 15.9932 19.5891 15.0131 20.1892 14.4159Z" fill="white"/>
</svg>
