<svg width="23" height="40" viewBox="0 0 23 40" fill="none" xmlns="http://www.w3.org/2000/svg">
<path d="M2 29.247C1.46957 29.247 0.96086 29.0363 0.585787 28.6612C0.210714 28.2861 0 27.7774 0 27.247V2C8.44486e-05 1.6045 0.117428 1.2179 0.337196 0.889084C0.556965 0.560265 0.869292 0.303986 1.23469 0.152646C1.60009 0.00130549 2.00216 -0.038301 2.39006 0.0388341C2.77797 0.115969 3.1343 0.306383 3.414 0.586002L21.414 18.586C21.7783 18.9632 21.9799 19.4684 21.9753 19.9928C21.9708 20.5172 21.7605 21.0188 21.3896 21.3896C21.0188 21.7605 20.5172 21.9708 19.9928 21.9754C19.4684 21.9799 18.9632 21.7783 18.586 21.414L4 6.828V27.248C4 27.7784 3.78929 28.2871 3.41421 28.6622C3.03914 29.0373 2.53043 29.247 2 29.247Z" fill="white"/>
<path d="M2 40C1.6045 39.9999 1.2179 39.8826 0.889085 39.6628C0.560265 39.443 0.303984 39.1307 0.152644 38.7653C0.00130409 38.3999 -0.0383005 37.9978 0.0388346 37.6099C0.11597 37.222 0.306383 36.8657 0.586001 36.586L18.586 18.586C18.7705 18.395 18.9912 18.2426 19.2352 18.1378C19.4792 18.033 19.7416 17.9778 20.0072 17.9755C20.2728 17.9732 20.5361 18.0238 20.7819 18.1244C21.0277 18.2249 21.251 18.3734 21.4388 18.5612C21.6266 18.749 21.7751 18.9723 21.8756 19.2181C21.9762 19.4639 22.0268 19.7272 22.0245 19.9928C22.0222 20.2584 21.967 20.5208 21.8622 20.7648C21.7574 21.0088 21.605 21.2295 21.414 21.414L3.414 39.414C3.22852 39.6 3.00813 39.7475 2.76547 39.8481C2.52281 39.9486 2.26267 40.0003 2 40Z" fill="white"/>
</svg>
