<svg width="165" height="31" viewBox="0 0 165 31" fill="none" xmlns="http://www.w3.org/2000/svg">
<path d="M15.6834 14.4334C16.0149 14.4334 16.3329 14.5651 16.5673 14.7995C16.8017 15.034 16.9334 15.3519 16.9334 15.6834C16.9334 16.0149 16.8017 16.3329 16.5673 16.5673C16.3329 16.8017 16.0149 16.9334 15.6834 16.9334C15.3519 16.9334 15.034 16.8017 14.7995 16.5673C14.5651 16.3329 14.4334 16.0149 14.4334 15.6834C14.4334 15.3519 14.5651 15.034 14.7995 14.7995C15.034 14.5651 15.3519 14.4334 15.6834 14.4334ZM5.95842 5.95842C7.74592 4.17092 11.6209 4.97092 15.6834 7.63342C19.7459 4.97092 23.6209 4.17092 25.4084 5.95842C27.1959 7.74592 26.3959 11.6209 23.7334 15.6834C26.3959 19.7459 27.1959 23.6209 25.4084 25.4084C23.6209 27.1959 19.7459 26.3959 15.6834 23.7334C11.6209 26.3959 7.74592 27.1959 5.95842 25.4084C4.17092 23.6209 4.97092 19.7459 7.63342 15.6834C4.97092 11.6209 4.17092 7.74592 5.95842 5.95842ZM20.1084 11.2584C20.8709 12.0334 21.5709 12.8209 22.2209 13.6084C23.9459 10.9459 24.5709 8.65842 23.6334 7.73342C22.7084 6.79592 20.4209 7.42092 17.7584 9.14592C18.5459 9.79592 19.3334 10.4959 20.1084 11.2584ZM11.2584 20.1084C10.4959 19.3334 9.79592 18.5459 9.14592 17.7584C7.42092 20.4209 6.79592 22.7084 7.73342 23.6334C8.65842 24.5709 10.9459 23.9459 13.6084 22.2209C12.8209 21.5709 12.0334 20.8709 11.2584 20.1084ZM7.73342 7.73342C6.79592 8.65842 7.42092 10.9459 9.14592 13.6084C9.79592 12.8209 10.4959 12.0334 11.2584 11.2584C12.0334 10.4959 12.8209 9.79592 13.6084 9.14592C10.9459 7.42092 8.65842 6.79592 7.73342 7.73342ZM13.0334 18.3334C13.9084 19.2084 14.8084 20.0084 15.6834 20.7209C16.5584 20.0084 17.4584 19.2084 18.3334 18.3334C19.2084 17.4584 20.0084 16.5584 20.7209 15.6834C20.0084 14.8084 19.2084 13.9084 18.3334 13.0334C17.4584 12.1584 16.5584 11.3584 15.6834 10.6459C14.8084 11.3584 13.9084 12.1584 13.0334 13.0334C12.1584 13.9084 11.3584 14.8084 10.6459 15.6834C11.3584 16.5584 12.1584 17.4584 13.0334 18.3334ZM23.6334 23.6334C24.5709 22.7084 23.9459 20.4209 22.2209 17.7584C21.5709 18.5459 20.8709 19.3334 20.1084 20.1084C19.3334 20.8709 18.5459 21.5709 17.7584 22.2209C20.4209 23.9459 22.7084 24.5709 23.6334 23.6334Z" fill="white"/>
<path d="M45.53 21C45.398 21 45.332 20.928 45.332 20.784V9.426C45.332 9.282 45.398 9.21 45.53 9.21H49.112C50.528 9.21 51.59 9.45 52.298 9.93C53.018 10.41 53.378 11.142 53.378 12.126C53.378 12.81 53.222 13.356 52.91 13.764C52.61 14.172 52.118 14.496 51.434 14.736V14.79C52.238 14.934 52.844 15.246 53.252 15.726C53.672 16.194 53.882 16.83 53.882 17.634C53.882 18.81 53.504 19.668 52.748 20.208C51.992 20.736 50.78 21 49.112 21H45.53ZM47.492 19.2H49.166C50.078 19.2 50.732 19.074 51.128 18.822C51.524 18.558 51.722 18.12 51.722 17.508C51.722 16.908 51.518 16.47 51.11 16.194C50.714 15.918 50.072 15.78 49.184 15.78H47.492V19.2ZM47.492 14.142H49.058C49.814 14.142 50.36 14.01 50.696 13.746C51.044 13.482 51.218 13.074 51.218 12.522C51.218 11.982 51.038 11.592 50.678 11.352C50.318 11.112 49.73 10.992 48.914 10.992H47.492V14.142ZM59.4056 21.216C58.1096 21.216 57.1376 20.934 56.4896 20.37C55.8416 19.794 55.5176 18.942 55.5176 17.814V15.582C55.5176 14.382 55.8356 13.476 56.4716 12.864C57.1196 12.24 58.0916 11.928 59.3876 11.928C60.6596 11.928 61.6196 12.228 62.2676 12.828C62.9156 13.428 63.2396 14.304 63.2396 15.456V16.86C63.2396 17.004 63.1676 17.076 63.0236 17.076H57.6236V17.616C57.6236 18.276 57.7616 18.762 58.0376 19.074C58.3256 19.374 58.7876 19.524 59.4236 19.524C59.9156 19.524 60.2936 19.446 60.5576 19.29C60.8336 19.134 60.9716 18.9 60.9716 18.588C60.9716 18.444 61.0436 18.372 61.1876 18.372H62.8436C62.9756 18.372 63.0476 18.438 63.0596 18.57C63.0956 19.434 62.7956 20.094 62.1596 20.55C61.5356 20.994 60.6176 21.216 59.4056 21.216ZM57.6236 15.636H61.1516V15.546C61.1516 14.886 61.0076 14.4 60.7196 14.088C60.4316 13.776 59.9936 13.62 59.4056 13.62C58.7936 13.62 58.3436 13.782 58.0556 14.106C57.7676 14.418 57.6236 14.904 57.6236 15.564V15.636ZM69.7245 21.216C69.3045 21.216 68.8485 21.156 68.3565 21.036C67.8765 20.928 67.4745 20.778 67.1505 20.586L67.1145 18.894C67.4265 19.074 67.7625 19.212 68.1225 19.308C68.4825 19.392 68.8185 19.434 69.1305 19.434C69.7065 19.434 70.1265 19.26 70.3905 18.912C70.6545 18.564 70.7865 18.054 70.7865 17.382V15.474C70.7865 14.886 70.6845 14.454 70.4805 14.178C70.2765 13.902 69.9585 13.764 69.5265 13.764C69.1545 13.764 68.7765 13.878 68.3925 14.106C68.0085 14.334 67.5525 14.688 67.0245 15.168L66.9345 13.584C67.2825 13.248 67.6305 12.96 67.9785 12.72C68.3265 12.468 68.6865 12.276 69.0585 12.144C69.4305 12 69.8325 11.928 70.2645 11.928C71.1405 11.928 71.8005 12.192 72.2445 12.72C72.6885 13.236 72.9105 14.034 72.9105 15.114V17.58C72.9105 18.804 72.6345 19.716 72.0825 20.316C71.5425 20.916 70.7565 21.216 69.7245 21.216ZM65.4945 24.33C65.3625 24.33 65.2965 24.258 65.2965 24.114V14.286C65.2965 13.974 65.2845 13.65 65.2605 13.314C65.2365 12.978 65.2065 12.666 65.1705 12.378C65.1585 12.222 65.2305 12.144 65.3865 12.144H66.8985C67.0305 12.144 67.1085 12.21 67.1325 12.342C67.1565 12.438 67.1805 12.564 67.2045 12.72C67.2285 12.864 67.2465 13.014 67.2585 13.17C67.2705 13.326 67.2765 13.452 67.2765 13.548L67.4205 14.556V24.114C67.4205 24.258 67.3485 24.33 67.2045 24.33H65.4945ZM80.2192 21C80.1472 21 80.0932 20.982 80.0572 20.946C80.0332 20.898 80.0092 20.838 79.9852 20.766C79.9612 20.646 79.9312 20.442 79.8952 20.154C79.8592 19.854 79.8292 19.578 79.8052 19.326L79.6792 18.588V14.988C79.6792 14.484 79.5772 14.13 79.3732 13.926C79.1692 13.71 78.8152 13.602 78.3112 13.602C77.3992 13.602 76.9552 13.932 76.9792 14.592C76.9792 14.736 76.9132 14.808 76.7812 14.808H75.1612C75.0172 14.808 74.9392 14.7 74.9272 14.484C74.8552 13.68 75.1252 13.056 75.7372 12.612C76.3612 12.156 77.2492 11.928 78.4012 11.928C79.5772 11.928 80.4352 12.18 80.9752 12.684C81.5272 13.188 81.8032 13.968 81.8032 15.024V18.768C81.8032 19.152 81.8092 19.512 81.8212 19.848C81.8452 20.184 81.8752 20.49 81.9112 20.766C81.9352 20.922 81.8692 21 81.7132 21H80.2192ZM76.7812 21.216C76.0612 21.216 75.5092 21 75.1252 20.568C74.7412 20.136 74.5492 19.518 74.5492 18.714C74.5492 18.09 74.6692 17.586 74.9092 17.202C75.1492 16.806 75.5392 16.5 76.0792 16.284C76.6312 16.056 77.3632 15.906 78.2752 15.834L79.9492 15.69V16.986L78.4552 17.112C77.7592 17.172 77.2792 17.304 77.0152 17.508C76.7512 17.712 76.6192 18.042 76.6192 18.498C76.6192 18.846 76.6912 19.11 76.8352 19.29C76.9792 19.458 77.2012 19.542 77.5012 19.542C77.8612 19.542 78.2272 19.428 78.5992 19.2C78.9712 18.96 79.4392 18.54 80.0032 17.94L80.0752 19.38C79.7152 19.776 79.3612 20.112 79.0132 20.388C78.6652 20.664 78.3112 20.868 77.9512 21C77.5912 21.144 77.2012 21.216 76.7812 21.216ZM87.3995 17.382C86.3195 17.382 85.4975 17.112 84.9335 16.572C84.3695 16.032 84.0875 15.144 84.0875 13.908V9.426C84.0875 9.282 84.1535 9.21 84.2855 9.21H86.0315C86.1755 9.21 86.2475 9.282 86.2475 9.426V13.566C86.2475 14.286 86.3915 14.784 86.6795 15.06C86.9675 15.336 87.4175 15.474 88.0295 15.474C88.5695 15.474 89.1155 15.366 89.6675 15.15C90.2195 14.934 90.7235 14.634 91.1795 14.25V16.104C90.8435 16.344 90.4655 16.56 90.0455 16.752C89.6255 16.944 89.1935 17.1 88.7495 17.22C88.3055 17.328 87.8555 17.382 87.3995 17.382ZM91.1255 21C90.9935 21 90.9275 20.928 90.9275 20.784V9.426C90.9275 9.282 90.9935 9.21 91.1255 9.21H92.8715C93.0155 9.21 93.0875 9.282 93.0875 9.426V20.784C93.0875 20.928 93.0155 21 92.8715 21H91.1255ZM99.2025 21.216C97.9065 21.216 96.9345 20.934 96.2865 20.37C95.6385 19.794 95.3145 18.942 95.3145 17.814V15.582C95.3145 14.382 95.6325 13.476 96.2685 12.864C96.9165 12.24 97.8885 11.928 99.1845 11.928C100.456 11.928 101.416 12.228 102.064 12.828C102.712 13.428 103.036 14.304 103.036 15.456V16.86C103.036 17.004 102.964 17.076 102.82 17.076H97.4205V17.616C97.4205 18.276 97.5585 18.762 97.8345 19.074C98.1225 19.374 98.5845 19.524 99.2205 19.524C99.7125 19.524 100.09 19.446 100.354 19.29C100.63 19.134 100.768 18.9 100.768 18.588C100.768 18.444 100.84 18.372 100.984 18.372H102.64C102.772 18.372 102.844 18.438 102.856 18.57C102.892 19.434 102.592 20.094 101.956 20.55C101.332 20.994 100.414 21.216 99.2025 21.216ZM97.4205 15.636H100.948V15.546C100.948 14.886 100.804 14.4 100.516 14.088C100.228 13.776 99.7905 13.62 99.2025 13.62C98.5905 13.62 98.1405 13.782 97.8525 14.106C97.5645 14.418 97.4205 14.904 97.4205 15.564V15.636ZM109.521 21.216C109.101 21.216 108.645 21.156 108.153 21.036C107.673 20.928 107.271 20.778 106.947 20.586L106.911 18.894C107.223 19.074 107.559 19.212 107.919 19.308C108.279 19.392 108.615 19.434 108.927 19.434C109.503 19.434 109.923 19.26 110.187 18.912C110.451 18.564 110.583 18.054 110.583 17.382V15.474C110.583 14.886 110.481 14.454 110.277 14.178C110.073 13.902 109.755 13.764 109.323 13.764C108.951 13.764 108.573 13.878 108.189 14.106C107.805 14.334 107.349 14.688 106.821 15.168L106.731 13.584C107.079 13.248 107.427 12.96 107.775 12.72C108.123 12.468 108.483 12.276 108.855 12.144C109.227 12 109.629 11.928 110.061 11.928C110.937 11.928 111.597 12.192 112.041 12.72C112.485 13.236 112.707 14.034 112.707 15.114V17.58C112.707 18.804 112.431 19.716 111.879 20.316C111.339 20.916 110.553 21.216 109.521 21.216ZM105.291 24.33C105.159 24.33 105.093 24.258 105.093 24.114V14.286C105.093 13.974 105.081 13.65 105.057 13.314C105.033 12.978 105.003 12.666 104.967 12.378C104.955 12.222 105.027 12.144 105.183 12.144H106.695C106.827 12.144 106.905 12.21 106.929 12.342C106.953 12.438 106.977 12.564 107.001 12.72C107.025 12.864 107.043 13.014 107.055 13.17C107.067 13.326 107.073 13.452 107.073 13.548L107.217 14.556V24.114C107.217 24.258 107.145 24.33 107.001 24.33H105.291ZM120.431 21C120.299 21 120.233 20.928 120.233 20.784V12.36C120.233 12.216 120.299 12.144 120.431 12.144H122.141C122.285 12.144 122.357 12.216 122.357 12.36V20.784C122.357 20.928 122.285 21 122.141 21H120.431ZM114.995 21C114.863 21 114.797 20.928 114.797 20.784V12.36C114.797 12.216 114.863 12.144 114.995 12.144H116.705C116.849 12.144 116.921 12.216 116.921 12.36V20.784C116.921 20.928 116.849 21 116.705 21H114.995ZM116.669 17.418V15.636H120.629V17.418H116.669ZM128.294 21.216C126.998 21.216 126.026 20.934 125.378 20.37C124.73 19.794 124.406 18.942 124.406 17.814V15.582C124.406 14.382 124.724 13.476 125.36 12.864C126.008 12.24 126.98 11.928 128.276 11.928C129.548 11.928 130.508 12.228 131.156 12.828C131.804 13.428 132.128 14.304 132.128 15.456V16.86C132.128 17.004 132.056 17.076 131.912 17.076H126.512V17.616C126.512 18.276 126.65 18.762 126.926 19.074C127.214 19.374 127.676 19.524 128.312 19.524C128.804 19.524 129.182 19.446 129.446 19.29C129.722 19.134 129.86 18.9 129.86 18.588C129.86 18.444 129.932 18.372 130.076 18.372H131.732C131.864 18.372 131.936 18.438 131.948 18.57C131.984 19.434 131.684 20.094 131.048 20.55C130.424 20.994 129.506 21.216 128.294 21.216ZM126.512 15.636H130.04V15.546C130.04 14.886 129.896 14.4 129.608 14.088C129.32 13.776 128.882 13.62 128.294 13.62C127.682 13.62 127.232 13.782 126.944 14.106C126.656 14.418 126.512 14.904 126.512 15.564V15.636ZM137.875 21.216C136.639 21.216 135.703 20.916 135.067 20.316C134.443 19.716 134.131 18.816 134.131 17.616V12C134.131 11.256 134.263 10.626 134.527 10.11C134.791 9.582 135.199 9.18 135.751 8.904C136.303 8.628 137.005 8.49 137.857 8.49C138.997 8.49 139.849 8.718 140.413 9.174C140.989 9.63 141.277 10.302 141.277 11.19C141.277 11.862 141.139 12.432 140.863 12.9C140.599 13.356 140.257 13.686 139.837 13.89V13.926C140.533 14.034 141.043 14.322 141.367 14.79C141.691 15.246 141.853 15.846 141.853 16.59V17.436C141.853 18.66 141.511 19.596 140.827 20.244C140.143 20.892 139.159 21.216 137.875 21.216ZM137.947 19.398C138.559 19.398 139.009 19.23 139.297 18.894C139.597 18.546 139.747 18.048 139.747 17.4V16.554C139.747 16.038 139.627 15.666 139.387 15.438C139.159 15.198 138.793 15.078 138.289 15.078C138.121 15.078 137.923 15.096 137.695 15.132C137.479 15.156 137.245 15.198 136.993 15.258C136.753 15.306 136.501 15.366 136.237 15.438V17.436C136.237 18.108 136.369 18.606 136.633 18.93C136.897 19.242 137.335 19.398 137.947 19.398ZM136.237 13.962L137.371 13.728C137.935 13.608 138.379 13.392 138.703 13.08C139.027 12.768 139.189 12.306 139.189 11.694C139.189 11.19 139.075 10.824 138.847 10.596C138.619 10.368 138.265 10.254 137.785 10.254C137.281 10.254 136.897 10.386 136.633 10.65C136.369 10.914 136.237 11.316 136.237 11.856V13.962ZM146.3 21.216C145.508 21.216 144.908 20.97 144.5 20.478C144.092 19.974 143.888 19.23 143.888 18.246V12.36C143.888 12.216 143.954 12.144 144.086 12.144H145.796C145.94 12.144 146.012 12.216 146.012 12.36V17.904C146.012 18.408 146.096 18.78 146.264 19.02C146.444 19.26 146.72 19.38 147.092 19.38C147.488 19.38 147.884 19.254 148.28 19.002C148.688 18.738 149.144 18.348 149.648 17.832L149.72 19.416C149.372 19.764 149.018 20.076 148.658 20.352C148.31 20.616 147.938 20.826 147.542 20.982C147.158 21.138 146.744 21.216 146.3 21.216ZM149.864 21C149.792 21 149.732 20.988 149.684 20.964C149.648 20.928 149.624 20.874 149.612 20.802C149.576 20.586 149.54 20.358 149.504 20.118C149.48 19.878 149.462 19.638 149.45 19.398L149.288 18.48V12.36C149.288 12.216 149.36 12.144 149.504 12.144H151.214C151.346 12.144 151.412 12.216 151.412 12.36V18.75C151.412 19.098 151.418 19.446 151.43 19.794C151.454 20.13 151.49 20.46 151.538 20.784C151.562 20.928 151.49 21 151.322 21H149.864ZM157.027 17.382C155.947 17.382 155.125 17.112 154.561 16.572C153.997 16.032 153.715 15.144 153.715 13.908V9.426C153.715 9.282 153.781 9.21 153.913 9.21H155.659C155.803 9.21 155.875 9.282 155.875 9.426V13.566C155.875 14.286 156.019 14.784 156.307 15.06C156.595 15.336 157.045 15.474 157.657 15.474C158.197 15.474 158.743 15.366 159.295 15.15C159.847 14.934 160.351 14.634 160.807 14.25V16.104C160.471 16.344 160.093 16.56 159.673 16.752C159.253 16.944 158.821 17.1 158.377 17.22C157.933 17.328 157.483 17.382 157.027 17.382ZM160.753 21C160.621 21 160.555 20.928 160.555 20.784V9.426C160.555 9.282 160.621 9.21 160.753 9.21H162.499C162.643 9.21 162.715 9.282 162.715 9.426V20.784C162.715 20.928 162.643 21 162.499 21H160.753Z" fill="white"/>
</svg>
