<svg width="64" height="64" viewBox="0 0 64 64" fill="none" xmlns="http://www.w3.org/2000/svg">
<path d="M23 41.247C22.4696 41.247 21.9609 41.0363 21.5858 40.6612C21.2107 40.2861 21 39.7774 21 39.247V14C21.0001 13.6045 21.1174 13.2179 21.3372 12.8891C21.557 12.5603 21.8693 12.304 22.2347 12.1526C22.6001 12.0013 23.0022 11.9617 23.3901 12.0388C23.778 12.116 24.1343 12.3064 24.414 12.586L42.414 30.586C42.7783 30.9632 42.9799 31.4684 42.9753 31.9928C42.9708 32.5172 42.7605 33.0188 42.3896 33.3896C42.0188 33.7605 41.5172 33.9708 40.9928 33.9754C40.4684 33.9799 39.9632 33.7783 39.586 33.414L25 18.828V39.248C25 39.7784 24.7893 40.2871 24.4142 40.6622C24.0391 41.0373 23.5304 41.247 23 41.247Z" fill="#546E7A"/>
<path d="M23 52C22.6045 51.9999 22.2179 51.8826 21.8891 51.6628C21.5603 51.443 21.304 51.1307 21.1526 50.7653C21.0013 50.3999 20.9617 49.9978 21.0388 49.6099C21.116 49.222 21.3064 48.8657 21.586 48.586L39.586 30.586C39.7705 30.395 39.9912 30.2426 40.2352 30.1378C40.4792 30.033 40.7416 29.9778 41.0072 29.9755C41.2728 29.9732 41.5361 30.0238 41.7819 30.1244C42.0277 30.2249 42.251 30.3734 42.4388 30.5612C42.6266 30.749 42.7751 30.9723 42.8756 31.2181C42.9762 31.4639 43.0268 31.7272 43.0245 31.9928C43.0222 32.2584 42.967 32.5208 42.8622 32.7648C42.7574 33.0088 42.605 33.2295 42.414 33.414L24.414 51.414C24.2285 51.6 24.0081 51.7475 23.7655 51.8481C23.5228 51.9486 23.2627 52.0003 23 52Z" fill="#546E7A"/>
</svg>
