<svg width="64" height="64" viewBox="0 0 64 64" fill="none" xmlns="http://www.w3.org/2000/svg">
<path d="M41.0246 22.7534C41.555 22.7534 42.0637 22.9641 42.4388 23.3392C42.8139 23.7143 43.0246 24.223 43.0246 24.7534V50.0004C43.0245 50.3959 42.9071 50.7825 42.6874 51.1113C42.4676 51.4402 42.1553 51.6964 41.7899 51.8478C41.4245 51.9991 41.0224 52.0387 40.6345 51.9616C40.2466 51.8845 39.8903 51.694 39.6106 51.4144L21.6106 33.4144C21.2463 33.0372 21.0447 32.532 21.0492 32.0076C21.0538 31.4832 21.2641 30.9816 21.6349 30.6108C22.0058 30.24 22.5074 30.0296 23.0318 30.0251C23.5562 30.0205 24.0614 30.2221 24.4386 30.5864L39.0246 45.1724V24.7524C39.0246 24.222 39.2353 23.7133 39.6104 23.3382C39.9854 22.9631 40.4941 22.7534 41.0246 22.7534Z" fill="#546E7A"/>
<path d="M41.0246 12.0004C41.4201 12.0005 41.8067 12.1179 42.1355 12.3376C42.4643 12.5574 42.7206 12.8697 42.8719 13.2351C43.0233 13.6005 43.0629 14.0026 42.9857 14.3905C42.9086 14.7784 42.7182 15.1347 42.4386 15.4144L24.4386 33.4144C24.2541 33.6054 24.0334 33.7578 23.7894 33.8626C23.5454 33.9674 23.2829 34.0226 23.0174 34.0249C22.7518 34.0272 22.4885 33.9766 22.2427 33.8761C21.9969 33.7755 21.7736 33.627 21.5858 33.4392C21.398 33.2514 21.2495 33.0281 21.1489 32.7823C21.0484 32.5365 20.9978 32.2732 21.0001 32.0076C21.0024 31.7421 21.0576 31.4796 21.1624 31.2356C21.2672 30.9916 21.4196 30.7709 21.6106 30.5864L39.6106 12.5864C39.7961 12.4004 40.0165 12.2529 40.2591 12.1524C40.5018 12.0518 40.7619 12.0002 41.0246 12.0004Z" fill="#546E7A"/>
</svg>
